<svg width="120" height="24" viewBox="0 0 120 24" fill="none" xmlns="http://www.w3.org/2000/svg">
<path d="M21.9211 22H29.6415L19.2799 1H10L21.9211 22Z" fill="#1750AF"/>
<path d="M21.9211 22H29.6415L39.8916 1H32.2931L21.9211 22Z" fill="#6CBBFF"/>
<path d="M21.9211 22H29.6415L39.8916 1H32.2931L21.9211 22Z" fill="#6CBBFF"/>
<path d="M29.6709 1H22.058L32.4758 22H40.1923L29.6709 1Z" fill="#1750AF"/>
<path d="M29.4981 1H21.8853L10.9421 22H18.8167L29.4981 1Z" fill="#6CBBFF"/>
<path d="M21.9211 22H29.6415L39.8916 1H32.2931L21.9211 22Z" fill="#6CBBFF"/>
<path d="M48.32 12.24H55.94V13.44H48.32V20H46.92V5.72H56.26V6.92H48.32V12.24ZM58.9031 9.52V20H57.5831V9.52H58.9031ZM58.9431 5.52V7.14H57.5231V5.52H58.9431ZM61.9291 11.12C62.1957 10.6 62.6357 10.1667 63.2491 9.82C63.8624 9.46 64.5491 9.28 65.3091 9.28C66.4291 9.28 67.3291 9.6 68.0091 10.24C68.6891 10.88 69.0291 11.7867 69.0291 12.96V20H67.7291V13.52C67.7291 12.44 67.5157 11.6533 67.0891 11.16C66.6757 10.6533 66.0024 10.4 65.0691 10.4C64.1891 10.4 63.4491 10.7067 62.8491 11.32C62.2491 11.92 61.9491 12.8467 61.9491 14.1V20H60.6291V9.52H61.8691V11.12H61.9291Z" fill="#1750AF"/>
<path d="M76.9091 20H75.4091L69.8691 5.72H71.4091L76.1691 18.38H76.2291L80.9491 5.72H82.4491L76.9091 20ZM88.7233 20C88.5899 19.8267 88.5033 19.3 88.4633 18.42C88.0499 19.0733 87.4833 19.54 86.7633 19.82C86.0433 20.1 85.3033 20.24 84.5433 20.24C83.9433 20.24 83.3966 20.1133 82.9033 19.86C82.4099 19.6067 82.0166 19.2467 81.7233 18.78C81.4433 18.3133 81.3033 17.78 81.3033 17.18C81.3033 16.1 81.6899 15.3267 82.4633 14.86C83.2366 14.38 84.3166 14.0533 85.7033 13.88C86.4899 13.7733 87.0699 13.6733 87.4433 13.58C87.8166 13.4733 88.0699 13.3467 88.2033 13.2C88.3499 13.0533 88.4233 12.84 88.4233 12.56C88.4233 11.88 88.2099 11.3467 87.7833 10.96C87.3566 10.5733 86.7033 10.38 85.8233 10.38C85.1433 10.38 84.5433 10.5467 84.0233 10.88C83.5166 11.2 83.1499 11.7533 82.9233 12.54L81.7033 12.24C81.9566 11.24 82.4566 10.5 83.2033 10.02C83.9633 9.52667 84.8566 9.28 85.8833 9.28C87.1899 9.28 88.1566 9.57333 88.7833 10.16C89.4233 10.7333 89.7433 11.52 89.7433 12.52V17.42C89.7433 18.1133 89.7566 18.6467 89.7833 19.02C89.8233 19.38 89.9033 19.7067 90.0233 20H88.7233ZM88.4233 14.18C88.2766 14.3533 87.9966 14.4867 87.5833 14.58C87.1699 14.66 86.5033 14.7733 85.5833 14.92C84.8099 15.0267 84.1299 15.2533 83.5433 15.6C82.9566 15.9467 82.6633 16.4733 82.6633 17.18C82.6633 17.78 82.8566 18.2533 83.2433 18.6C83.6299 18.9467 84.1499 19.12 84.8033 19.12C85.7233 19.12 86.5566 18.8667 87.3033 18.36C88.0499 17.84 88.4233 16.9733 88.4233 15.76V14.18ZM98.4717 18.4C98.1917 18.92 97.7451 19.36 97.1317 19.72C96.5317 20.0667 95.8451 20.24 95.0717 20.24C93.9517 20.24 93.0517 19.92 92.3717 19.28C91.6917 18.64 91.3517 17.7267 91.3517 16.54V9.52H92.6717V16C92.6717 17.08 92.8784 17.8733 93.2917 18.38C93.7184 18.8733 94.3917 19.12 95.3117 19.12C96.1917 19.12 96.9317 18.8133 97.5317 18.2C98.1451 17.5867 98.4517 16.6533 98.4517 15.4V9.52H99.7517V20H98.5117V18.4H98.4717ZM102.712 5.52V20H101.392V5.52H102.712ZM108.198 18.88C108.651 18.88 109.024 18.8667 109.318 18.84V20C108.918 20.0267 108.504 20.04 108.078 20.04C107.424 20.04 106.918 19.9733 106.558 19.84C106.198 19.6933 105.938 19.4533 105.778 19.12C105.618 18.7867 105.538 18.32 105.538 17.72V10.56H103.758V9.52H105.538V6.46H106.838V9.52H109.378V10.56H106.838V17.44C106.838 18 106.931 18.38 107.118 18.58C107.304 18.78 107.664 18.88 108.198 18.88Z" fill="#2678FF"/>
</svg>
